<?xml version="1.0" encoding="utf-8"?>
<!-- Generator: Adobe Illustrator 26.0.0, SVG Export Plug-In . SVG Version: 6.00 Build 0)  -->
<svg version="1.1" id="Layer_1" xmlns="http://www.w3.org/2000/svg" xmlns:xlink="http://www.w3.org/1999/xlink" x="0px" y="0px"
	 viewBox="0 0 1400 1700" style="enable-background:new 0 0 1400 1700;" xml:space="preserve">
<style type="text/css">
	.st0{fill:#000426;}
	.st1{fill:#2196F3;}
	.st2{fill:#1B1F61;}
	.st3{fill:#D2D6FF;}
	.st4{fill:#003559;}
	.st5{fill:#FA7675;}
	.st6{fill:#B6E2FF;}
	.st7{fill:#FEC65A;}
	.st8{fill:#FFD575;}
	.st9{fill:#FFFFFF;}
</style>
<ellipse class="st0" cx="701.86" cy="1564.45" rx="456.33" ry="13.25"/>
<path class="st1" d="M773.38,1284.37c63.85,5.15,126.41,31.48,190,23.69c56.26-6.89,108.38-42.13,136-91.94
	c27.62-49.81,30.04-112.96,6.33-164.77c-19.14-41.81-53.92-76.2-65.68-120.69c-15.86-60.01,14.35-122.98,53.43-171.03
	s87.96-88.35,120.16-141.32c33.71-55.41,41.37-122.16,3.93-176.98c-36.45-53.37-81.73-49.47-142.23-54.59
	c-36.01-3.05-73.58-6.6-104.19-25.95c-26.36-16.67-44.67-43.28-62.23-69.16c-27.99-41.25-43.07-71.26-89.58-88.42
	c-47.99-17.71-97-31.23-146.03-7.81c-65.82,31.44-92.36,111.05-144.92,161.82c-36.88,35.62-85.44,55.87-132.91,74.95
	c-47.47,19.08-96.21,38.48-134.18,72.94s-63.41,87.87-50.51,137.65c17.37,67.03,96.53,108.03,102.63,177.03
	c3.22,36.37-15.64,71.23-38.89,99.26c-23.25,28.03-51.42,51.85-72.61,81.49c-38.9,54.42-50.92,127.35-31.57,191.5
	c19.35,64.14,69.63,118.04,132.02,141.5c74.94,28.18,158.63,12.94,235.87-8.02S693.64,1277.94,773.38,1284.37z"/>
<path class="st2" d="M843.86,900.58h-38.32v9.17c12.63,5.75,25.48,10.83,38.32,15.96V900.58z"/>
<path class="st0" d="M805.55,909.75v88.89h38.32v-72.93C831.03,920.58,818.18,915.5,805.55,909.75z"/>
<path class="st0" d="M849.25,900.58h-43.7v-100.2h13.58c16.63,0,30.12,13.48,30.12,30.12V900.58z"/>
<polygon class="st3" points="335.3,867.92 322.75,867.92 274.29,977.03 274.29,1156.77 371.77,1156.77 371.77,977.03 "/>
<polygon class="st2" points="384.32,1156.77 286.84,1156.77 286.84,977.03 335.3,867.92 384.32,977.03 "/>
<path class="st2" d="M489.19,894.73c0-7.99,3.22-14.46,7.18-14.46H335.58c-3.97,0-7.18,6.47-7.18,14.46
	c0,7.99,3.22,14.46,7.18,14.46h160.79C492.4,909.19,489.19,902.72,489.19,894.73z"/>
<path class="st0" d="M533.23,1499.72l-8.35,4.31c-28.8,14.88-54.35,35.42-75.12,60.42v0h192.91l-0.17-0.98
	c-4.09-23.31-13.89-45.22-28.53-63.75h0H533.23z"/>
<path class="st0" d="M797.38,1499.72l8.35,4.31c28.8,14.88,54.35,35.42,75.12,60.42l0,0H687.95l0.17-0.98
	c4.09-23.31,13.89-45.22,28.53-63.75l0,0H797.38z"/>
<g>
	<path class="st4" d="M693.68,473.27c3.34-6.17,7.45-11.76,12.66-16.43c5.22-4.67,12.27-7.73,19.17-6.63
		c6.2,0.98,11.54,5.18,15.28,10.25c3.74,5.08,6.1,11.02,8.42,16.9c29.32-16.14,33.25-78.53,33.25-78.53l-138.38-11.3
		C637.92,425.06,693.68,473.27,693.68,473.27z"/>
	<path class="st4" d="M567.58,624.52c-1.44-7.24-5.02-14.37-3.77-21.66c1.43-8.31,8.67-14.21,12.61-21.65
		c5.5-10.39,3.71-15.71,4.88-27.41c1.17-11.71,12.4-32.31,18.96-37.52c-17.71,13.21-32.39,30.82-45.13,48.93
		c-2.88,36.08-4.94,73.29-7.49,109.83c3.85-3.97,7.44-8.16,10.55-12.75C565.65,651.28,570.18,637.59,567.58,624.52z"/>
	<path class="st4" d="M862.08,587.86c0.92-6.94,3.51-14.43,0.2-20.58c-3.06-5.7-10.43-8.4-12.55-14.52
		c-1.85-5.35,1.02-11.02,2.63-16.45c3.49-11.76,0.3-25.05-7.6-34.41c3.04,16.38,1.65,33.57-3.97,49.25
		c-2.09,5.83-4.77,11.52-5.78,17.63c-1.01,6.12-0.42,13.87,3.9,18.3c8.2,10.79,15.65,22.12,22.38,33.86
		c0.42-1.88,0.7-3.78,0.82-5.66C862.7,606.15,860.87,596.93,862.08,587.86z"/>
	<path class="st4" d="M953.35,574.69c-12-24.27-25.84-48.29-42.44-69.69c-15-19.34-22.11-43.75-39.91-61.35
		c-12.69-12.55-28.75-20.7-45.23-26.98c-15.78-6.01-28.16-10.91-43.32-17.85c0,0-3.93,62.39-33.25,78.53
		c-2.32-5.87-4.68-11.82-8.42-16.9c-3.74-5.08-9.07-9.27-15.28-10.25c-6.9-1.09-13.95,1.96-19.17,6.63
		c-5.22,4.67-9.32,10.26-12.66,16.43c0,0-55.76-48.21-49.61-85.74l-51.55,12.08c-33.6,7.87-63.14,27.92-83,56.32l-31.17,44.59
		c-16.45,23.54-30.32,48.61-41.5,74.77c18.79,26,55.1,34.5,87.65,36.5c8.04-16.7,18.3-32.39,30.62-46.59
		c12.75-18.11,27.42-35.72,45.13-48.93c-6.56,5.2-17.79,25.81-18.96,37.52c-1.17,11.71,0.62,17.03-4.88,27.41
		c-3.94,7.45-11.19,13.34-12.61,21.65c-1.25,7.28,2.33,14.41,3.77,21.66c2.61,13.07-1.92,26.76-9.39,37.77
		c-3.11,4.59-6.7,8.79-10.55,12.75c-0.64,9.16-1.3,18.29-2.02,27.33c-1.32,16.48-2,34.99,8.95,47.32
		c11.23,12.65,30.18,13.75,47.04,13.93c69.01,0.77,138.02,1.53,207.04,2.3c8.06,0.09,18.19-4.48,24.84-9.06
		c6.65-4.59,11.42-12.97,9.32-20.8c-2.82-10.52-16.56-16.71-16.07-27.6c0.46-10.14,13.58-17.12,12.02-27.15
		c-1.13-7.26-9.48-11.25-11.86-18.19c-2.92-8.49,3.46-17.1,8.39-24.59c8.02-12.2,8.14-40.61,3.63-51.46
		c-4.31-4.43-4.9-12.18-3.9-18.3c1.01-6.12,3.69-11.8,5.78-17.63c5.62-15.67,7-32.86,3.97-49.25c7.9,9.35,11.09,22.65,7.6,34.41
		c-1.61,5.43-4.48,11.1-2.63,16.45c2.12,6.12,9.49,8.82,12.55,14.52c3.31,6.16,0.72,13.64-0.2,20.58
		c-1.2,9.07,0.63,18.29,0.02,27.42c-0.12,1.87-0.4,3.78-0.82,5.66c2.7,4.72,5.3,9.5,7.76,14.35c0.01,0,0.01,0,0.02,0
		c35.17,2.85,70.39-9.47,96.67-33.16c0.05-0.04,0.1-0.08,0.15-0.13C961.96,592.78,957.79,583.67,953.35,574.69z"/>
</g>
<path class="st2" d="M990.5,673.51c-0.75-2.77-1.52-5.53-2.31-8.28c-2.21,1.07-4.55,1.91-6.88,2.68
	c-30.56,10.12-63.59,12.58-95.3,7.15c2.48,7.07,4.71,14.23,6.7,21.45C926.41,699.34,962.21,692.08,990.5,673.51z"/>
<path class="st4" d="M990.5,673.51c-28.29,18.57-64.09,25.84-97.79,23c12.83,46.46,15.57,95.74,7.13,143.34
	c-6.18,3.71-12.86,8.02-17.18,13.82c-4.31,5.8-6.68,13.45-4.75,20.43c1.93,6.98,8.9,12.66,16.03,11.66
	c-7.03,1.19-11.86,12.78-10.43,19.81c1.8,8.78,12.14,18.94,21.18,19.58c4.2,0.3,8.49-1.13,11.68-3.87c1.18,3.17,4,5.67,7.27,6.44
	c4.97,1.18,12.07-2.69,16.45-4.92c6.81,7,19.89,6,25.57-1.96c2.71,7.93,14.47,8.99,21.03,3.82c6.56-5.17,9.1-13.87,11.03-22.03
	c13.15-55.71,15.06-114.09,5.59-170.55C1000.01,712.38,995.74,692.81,990.5,673.51z"/>
<path class="st2" d="M505.64,674.34c1.11-7.94,2.63-15.8,4.62-23.53c-31.92,5.53-65.9-2.41-92.27-21.3
	c-0.86,3.15-1.67,6.32-2.45,9.49C439.15,662.77,472.91,673.36,505.64,674.34z"/>
<path class="st4" d="M522.91,863.96c-2.19-6.14-6.13-11.47-10.01-16.7c-2.84-3.81-5.68-7.63-8.51-11.44l-0.78-131.15
	c-0.06-10.21,0.65-20.34,2.04-30.34c-32.73-0.97-66.49-11.56-90.1-35.34c-8.04,32.55-12.2,66.14-12.2,100.06v94.73l-11.64,50.68
	c-2.99,13.01,1.7,26.59,12.06,34.93l3.58,2.88c4.15,2.99,12.66,2.38,15.87-1.62c2.82,3.74,8.25,4.38,12.92,4.62
	c4.66,0.24,9.4-1.68,12.58-5.12c2.1,4.43,7.96,7.14,12.84,7.29c4.88,0.15,9.73-2.64,12.09-6.94c2.49,6.34,11.84,6.98,18.1,4.4
	c6.26-2.59,10.32-9,11.87-15.63c1.55-6.63,0.98-13.56,0.4-20.34c5.76,2.99,14.49-0.52,17.89-6.08
	C525.3,877.31,525.09,870.11,522.91,863.96z"/>
<path class="st0" d="M436.86,575.29C436.85,575.29,436.85,575.28,436.86,575.29c-2.29-3.17-8.65-4.31-12.25-2.83
	c-3.6,1.47-5.93,5.57-5.38,9.44c0.19,1.35,0.69,2.73,1.15,4.09c1.11,3.32-0.99,6.85-4.41,7.47l-5.56,1
	c-4.65,0.84-6.39,6.74-2.85,9.9c0.03,0.02,0.05,0.05,0.08,0.07c2.57,2.26,5.72,4.76,5.59,8.2c-0.06,1.47-0.95,2.82-2.15,3.63
	c-2.53,1.72-2.98,5.32-0.67,7.33c0.04,0.04,0.09,0.08,0.13,0.11c2.41,2.04,4.9,3.97,7.46,5.8c26.37,18.89,60.35,26.83,92.27,21.3
	c0.91-0.16,1.82-0.32,2.73-0.5c4.08-0.81,8.2-3.8,12.03-5.41c1.01-0.43,2.11-0.93,2.6-1.92c0.92-1.9-0.99-4.09-2.58-5.19
	c-0.7-0.48-1.36-1.03-1.86-1.73c-2.15-2.99,0.22-5.23,2.47-6.51c1.67-0.94,3.58-1.83,4.35-3.6c0.64-1.48,0.13-3.76-1.01-5.13
	c-0.89-1.08-1.04-2.58-0.39-3.81l0.04-0.08c1.18-2.21-0.32-4.9-2.81-5.04c-0.44-0.02-0.89-0.06-1.33-0.08
	C491.95,609.79,455.65,601.29,436.86,575.29z"/>
<path class="st0" d="M981.31,667.9c2.33-0.77,4.67-1.61,6.88-2.68c2.07-1,4.01-2.19,5.71-3.73c2.52-2.28,4.04-5.44,4.52-8.82
	c1.53-10.72-7.47-5.12-9.64-12.46c-0.67-2.26-0.28-4.7,0.89-6.74c3.88-6.74,2.48-7.4-3.46-12.1c-4.25-3.36-3.87-4.13-3.29-9.4
	c1.29-11.74-7.02-18.89-17.06-9.98c-0.05,0.04-0.1,0.08-0.15,0.13c-26.28,23.69-61.5,36.01-96.67,33.16c-0.01,0-0.01,0-0.02,0
	c-3.9-0.31-9.15,1.29-7.88,7.07c0.34,1.56,1.21,2.96,2.42,4.01c0.65,0.56,1.27,1.15,1.53,1.96c1.21,3.7-5.99,6.45-2.75,10.65
	c0.73,0.95,1.79,1.56,2.91,1.96c2.88,1.02,4.39,3.64,5.72,6.18c1.05,2.01,2.11,4.12,3.84,5.57c1.24,1.04,2.96,1.98,4.53,1.99
	c2.12,0,4.25-0.02,6.34,0.34c0.1,0.02,0.2,0.03,0.31,0.05C917.72,680.48,950.75,678.02,981.31,667.9z"/>
<path class="st5" d="M663.92,367.97c26.68-6.61,89.29-1.79,107.25,10.95l-7.7,31.51l-37.06,8.31l-53.43-15.19l-11.46-26.34
	L663.92,367.97z"/>
<path class="st2" d="M698.74,213.9c-5.2-0.19-10.76-0.24-15.15,2.58c-5.86,3.76-7.84,11.74-6.64,18.63
	c1.21,6.89,4.96,13.01,8.47,19.05c3.51,6.04,6.94,12.44,7.38,19.42c0.44,6.98-2.96,14.69-9.51,17.05
	c7.75,4.88,18.18,3.66,26.04-1.03c7.86-4.69,13.55-12.31,18.28-20.18c4.18-6.97,7.82-14.45,8.94-22.51
	c1.12-8.06-0.57-16.82-5.99-22.86C722.9,215.49,710.19,214.31,698.74,213.9z"/>
<g>
	<path class="st6" d="M759.03,367.97c-3.8-20.83-2.95-42.74,2.14-63.05c-13.82-20.14-33.42-30.75-56.95-36.92
		c-0.24,11.43-1.51,22.78-3.63,33.97c3.17,14.04,7.74,27.7,15.75,39.51C726.09,355.87,742.09,367.03,759.03,367.97z"/>
	<path class="st6" d="M716.33,341.48c-8.01-11.82-12.58-25.47-15.75-39.51c-5.85,30.88-18.23,60.63-33.81,87.99
		c10.43,16.83,28.89,28.13,48.57,29.22c19.68,1.09,39.65-7.98,51.85-23.56c-3.72-8.82-6.42-18.12-8.16-27.65
		C742.09,367.03,726.09,355.87,716.33,341.48z"/>
</g>
<path class="st6" d="M795.99,220.53c3.11,25.31,1.38,51.21-5.07,75.88c-3.39,12.97-8.71,26.45-19.75,33.95
	c-14.46,9.82-35.41,5.77-47.97-6.43s-17.55-30.67-16.96-48.22c-6.26,2.47-14.07-0.29-18.88-5.01c-3.56-3.5-5.55-8.92-4-13.68
	c1.78-5.49,7.95-8.79,13.66-8.25c5.71,0.53,10.77,4.29,14.03,9.04c-4.79-20.67,8.37-44.95,27.42-54.07
	C757.52,194.62,783.08,203.74,795.99,220.53z"/>
<path class="st7" d="M687.37,196.77c-4.64,20.32,17.26,41.19,34.7,49.69c17.45,8.5,64.32,23.31,88.95,16.77
	c24.63-6.54,7.17-24.45-2.06-27.2c-9.23-2.75-102.97-35.89-102.97-35.89L687.37,196.77z"/>
<path class="st8" d="M688.36,204.57c-1.87-6.63-0.89-13.79,1.29-20.33c7.03-21.11,26.99-37,48.92-39.91
	c21.93-2.91,44.89,6.88,58.78,24.21c13.89,17.33,18.58,41.49,13.09,63.05c-0.74,2.92-1.73,5.91-3.84,8.05
	c-2.36,2.39-5.76,3.36-9.02,4.09c-31.35,7.05-65.52,0.27-91.87-18.22C698.14,220.21,690.88,213.49,688.36,204.57z"/>
<path class="st7" d="M743.46,143.82c27.42,4.99,35.91,68.81,29.25,102.63c11.81,1.8,20.48-1.83,20.48-1.83
	C794.51,194.79,788.61,130.56,743.46,143.82z"/>
<path class="st0" d="M663.92,367.97c2.86,21.99,27.15,44.78,62.5,50.77c0,0-22.58,21.13-31.25,36.97c0,0-46.3-35.81-51.09-68.18
	L663.92,367.97z"/>
<path class="st0" d="M726.41,418.74c16.02-3.14,40.14-23.28,44.75-39.81l11.29,19.91c-9.24,36.39-28.02,61.18-28.02,61.18
	C750.64,436.26,726.41,418.74,726.41,418.74z"/>
<path class="st9" d="M636.27,1359.54c-1.32-12.43-1.75-24.96-1.28-37.48c-38.56,0.16-81.68,7.82-117.8-8.45l-2.6,32.15
	c-0.16,2.38-0.25,4.77-0.29,7.16C551.8,1367.82,595.96,1361.74,636.27,1359.54z"/>
<path class="st9" d="M648.89,1428.65c0.87-7.61-1.31-15.48-3.48-22.94l-0.14-0.46c-0.94-3.21-1.8-6.43-2.61-9.67
	c-2.16,0.74-4.35,1.34-6.46,1.88c-36.96,7.61-79.41,15.2-114.42,1.86c0.02,0.83-0.05,1.59-0.23,2.25
	c-1.46,5.4-5.88,9.37-10.05,13.06c-4.17,3.69-8.52,7.8-9.73,13.26c-0.2,0.89-0.3,1.77-0.33,2.64
	C548.53,1448.55,601.3,1442.55,648.89,1428.65z"/>
<path class="st7" d="M648.89,1428.65c-47.59,13.9-100.36,19.9-147.44,1.88c-0.36,10,9.17,19.31,8.48,29.68
	c-0.7,10.51-11.57,18.01-12.77,28.47c-1.07,9.26,6.15,17.85,14.7,21.44c8.55,3.58,18.14,3.31,27.4,2.97
	c22.93-0.83,45.85-1.66,68.78-2.49c7.36-0.27,14.91-0.58,21.68-3.48c6.77-2.91,12.7-9.03,13.19-16.42
	c0.63-9.46-7.43-17.61-7.76-27.08c-0.39-11.27,9.92-19.93,12.96-30.78C648.48,1431.45,648.73,1430.05,648.89,1428.65z"/>
<path class="st7" d="M514.3,1352.91c-0.2,13.85,1.73,27.69,6.35,40.74c0.7,1.97,1.11,3.96,1.14,5.67
	c35.02,13.34,77.47,5.75,114.42-1.86c2.12-0.53,4.3-1.14,6.46-1.88c-2.97-11.86-5.12-23.9-6.4-36.04
	C595.96,1361.74,551.8,1367.82,514.3,1352.91z"/>
<path class="st7" d="M807.76,1314.83l11.08-550.71l-28.51-29.88l7.16-214.72l-181.71-7.75L605,725.59l-42.74,30.46l-45.08,557.55
	c36.12,16.27,79.24,8.62,117.8,8.45c0.13-3.55,0.33-7.11,0.61-10.66l35.61-454.1h28.83v448.75c0,4.03-0.17,8.04-0.49,12.04
	C735.08,1322.77,774.15,1326.29,807.76,1314.83z"/>
<path class="st9" d="M812.94,1353.74c1.32-7.92,0.46-16.37-5.54-21.23l0.36-17.68c-33.61,11.46-72.68,7.94-108.22,3.26
	c-1.06,13.34-3.82,26.49-7.89,39.27C731.38,1367.52,772.54,1363.62,812.94,1353.74z"/>
<path class="st7" d="M808.55,1393.33c-0.93-1.95-1.67-3.98-2.09-6.13c-1.87-9.41,2.49-18.76,5.21-27.95
	c0.52-1.77,0.96-3.62,1.27-5.51c-40.4,9.88-81.56,13.78-121.3,3.61c-0.51,1.61-1.04,3.22-1.6,4.83c-2.26,6.49-2.73,14.13-1.22,19.49
	c1.59,5.64,4.25,10.96,6.52,16.37C732.78,1406.87,773.54,1408.17,808.55,1393.33z"/>
<path class="st9" d="M823.64,1419.31c-1.02-2.88-2.35-5.63-3.67-8.02c-3.42-6.19-8.43-11.67-11.42-17.96
	c-35.01,14.84-75.77,13.54-113.21,4.7c1.79,4.27,3.34,8.59,3.94,13.17c0.85,6.52-0.28,12.84-2.23,19.1
	C738.82,1436.81,787.82,1441.59,823.64,1419.31z"/>
<path class="st7" d="M823.64,1419.31c-35.81,22.28-84.82,17.5-126.58,11c-4.37,14.05-12.87,27.75-12.43,42.5
	c0.37,12.4,7.66,24.37,18.48,30.32c11.39,6.26,25.11,5.8,38.08,5.18c12.23-0.59,24.46-1.18,36.7-1.77
	c18.63-0.9,39.7-4.74,45.89-25.25c2.46-8.16,1.64-17.28-2.23-24.87c-1.58-3.1-3.71-6.16-3.68-9.64c0.03-4.12,3.03-7.5,5.29-10.94
	C826.34,1430.99,825.61,1424.9,823.64,1419.31z"/>
<polygon class="st2" points="700.02,857.29 749.44,857.29 700.02,878.55 "/>
<path class="st7" d="M654.34,529.74c-10.98-64.04-19.97-94.22-31.93-139.2c-10.6,2.24-22.15,4.47-32.76,6.71
	c11.66,35.19,25.82,82.96,37.26,137.24L654.34,529.74z"/>
<polygon class="st9" points="669.01,556.09 626.53,565.26 619.14,530.59 661.62,521.41 "/>
<polygon class="st7" points="627.67,536.14 656.1,530 660.48,550.54 632.05,556.68 "/>
<path class="st7" d="M761.36,533.36c10.98-64.04,19.02-88.54,30.99-133.51c10.6,2.24,21.66,6.97,30.99,13.17
	c-11.66,35.19-23.1,70.82-34.54,125.1L761.36,533.36z"/>
<polygon class="st9" points="746.69,559.7 789.17,568.88 796.56,534.2 754.08,525.03 "/>
<polygon class="st7" points="788.03,539.75 759.6,533.61 755.22,554.15 783.65,560.29 "/>
<path class="st2" d="M761.53,680.3c0.92,9.21,2.01,19.58-6.18,24.63c-8.19,5.05-18.42,4.88-28.01,4.55
	c-16.72-0.58-33.44-1.16-50.17-1.73c-11.44-0.4-24.17-1.36-31.93-9.82c-7.94-8.66-7.68-21.85-6.94-33.61
	c1.57-25.03,4.21-62.56,5.78-87.59l-12.66,18.93c-0.09,30.38-0.25,61.66-0.35,92.04c-0.02,5.01,0,10.17,1.91,14.79
	c2.62,6.34,8.56,10.82,14.96,13.18c6.41,2.36,13.32,2.85,20.13,3.21c22.97,1.2,46,1.04,68.95-0.47c5.13-0.34,10.37-0.77,15.05-2.9
	c5.92-2.69,10.55-8.13,12.28-14.43C766.09,694.77,765.23,685.68,761.53,680.3z"/>
<rect x="648.52" y="615.48" transform="matrix(0.9998 0.0182 -0.0182 0.9998 11.3668 -12.6654)" class="st2" width="109.82" height="8.78"/>
<polygon class="st9" points="775.44,268 763.47,298.7 782.46,301.97 "/>
<path class="st2" d="M496.37,880.27c-3.97,0-7.18,6.47-7.18,14.46c0,7.99,3.22,14.46,7.18,14.46h76.4v-28.92H496.37z"/>
<polygon class="st3" points="578.2,867.92 565.65,867.92 517.18,977.03 517.18,1156.77 614.67,1156.77 614.67,977.03 "/>
<polygon class="st2" points="627.22,1156.77 529.73,1156.77 529.73,977.03 578.2,867.92 627.22,977.03 "/>
<rect x="274.29" y="977.03" class="st3" width="255.45" height="179.74"/>
<rect x="289.98" y="988.1" class="st9" width="224.06" height="10.54"/>
<rect x="289.98" y="1108.44" class="st9" width="224.06" height="10.54"/>
<rect x="289.98" y="1127.55" class="st9" width="224.06" height="10.54"/>
<polygon class="st2" points="818.84,860.22 559.85,785.93 562.26,756.05 818.84,829.31 "/>
</svg>
